<svg xmlns="http://www.w3.org/2000/svg" xmlns:xlink="http://www.w3.org/1999/xlink" width="500" zoomAndPan="magnify" viewBox="0 0 375 374.999991" height="500" preserveAspectRatio="xMidYMid meet" version="1.0"><defs><g/></defs><g fill="#6c7380" fill-opacity="1"><g transform="translate(32.215249, 205.405453)"><g><path d="M 50.171875 -49.875 C 49.828125 -46.988281 49.65625 -44.050781 49.65625 -41.0625 C 49.65625 -38.90625 49.753906 -37.046875 49.953125 -35.484375 C 47.847656 -34.835938 45.398438 -34.59375 42.609375 -34.75 C 42.304688 -38.070312 41.703125 -40.457031 40.796875 -41.90625 C 39.890625 -43.351562 38.3125 -44.097656 36.0625 -44.140625 L 30.78125 -13.734375 C 30.488281 -12.265625 30.34375 -11.039062 30.34375 -10.0625 C 30.34375 -8.59375 30.78125 -7.5625 31.65625 -6.96875 C 32.539062 -6.382812 34.234375 -5.898438 36.734375 -5.515625 C 36.921875 -4.535156 37.015625 -3.359375 37.015625 -1.984375 C 37.015625 -0.953125 36.992188 -0.21875 36.953125 0.21875 C 34.796875 0.0703125 29.992188 0 22.546875 0 C 14.316406 0 8.882812 0.0703125 6.25 0.21875 C 6.394531 -1.738281 6.832031 -3.648438 7.5625 -5.515625 C 9.863281 -5.804688 11.515625 -6.179688 12.515625 -6.640625 C 13.523438 -7.109375 14.285156 -7.894531 14.796875 -9 C 15.316406 -10.101562 15.796875 -11.925781 16.234375 -14.46875 L 21.375 -44.140625 C 19.019531 -43.941406 17.082031 -43.082031 15.5625 -41.5625 C 14.050781 -40.050781 12.707031 -37.753906 11.53125 -34.671875 C 10.007812 -34.671875 8.707031 -34.78125 7.625 -35 C 6.550781 -35.21875 5.523438 -35.625 4.546875 -36.21875 C 5.234375 -37.925781 5.882812 -40.085938 6.5 -42.703125 C 7.113281 -45.328125 7.539062 -47.71875 7.78125 -49.875 C 11.75 -49.726562 18.773438 -49.65625 28.859375 -49.65625 C 38.066406 -49.65625 45.171875 -49.726562 50.171875 -49.875 Z M 50.171875 -49.875 "/></g></g></g><g fill="#6c7380" fill-opacity="1"><g transform="translate(79.297366, 205.405453)"><g><path d="M 0.734375 0.21875 C 0.984375 -1.882812 1.445312 -3.796875 2.125 -5.515625 C 3.5 -5.660156 4.488281 -5.953125 5.09375 -6.390625 C 5.707031 -6.828125 6.1875 -7.597656 6.53125 -8.703125 C 6.875 -9.804688 7.289062 -11.726562 7.78125 -14.46875 L 11.671875 -36.796875 C 11.972656 -38.410156 12.125 -39.6875 12.125 -40.625 C 12.125 -41.789062 11.828125 -42.609375 11.234375 -43.078125 C 10.648438 -43.546875 9.570312 -43.898438 8 -44.140625 C 7.8125 -44.929688 7.71875 -45.910156 7.71875 -47.078125 C 7.71875 -48.015625 7.789062 -48.945312 7.9375 -49.875 C 10.332031 -49.726562 14.566406 -49.65625 20.640625 -49.65625 C 26.910156 -49.65625 31.488281 -49.726562 34.375 -49.875 C 34.375 -47.820312 34.03125 -45.910156 33.34375 -44.140625 C 31.488281 -43.941406 30.144531 -43.625 29.3125 -43.1875 C 28.476562 -42.75 27.835938 -41.976562 27.390625 -40.875 C 26.953125 -39.769531 26.515625 -37.921875 26.078125 -35.328125 L 22.25 -13.375 C 21.957031 -11.601562 21.8125 -10.207031 21.8125 -9.1875 C 21.8125 -7.71875 22.140625 -6.738281 22.796875 -6.25 C 23.460938 -5.757812 24.65625 -5.515625 26.375 -5.515625 L 27.625 -5.515625 C 30.070312 -5.515625 32.113281 -6.414062 33.75 -8.21875 C 35.394531 -10.03125 36.828125 -12.800781 38.046875 -16.53125 C 41.085938 -15.894531 43.585938 -14.765625 45.546875 -13.140625 C 44.910156 -11.578125 44.257812 -9.519531 43.59375 -6.96875 C 42.9375 -4.425781 42.457031 -2.03125 42.15625 0.21875 C 38.832031 0.0703125 32.46875 0 23.0625 0 C 11.507812 0 4.066406 0.0703125 0.734375 0.21875 Z M 0.734375 0.21875 "/></g></g></g><g fill="#6c7380" fill-opacity="1"><g transform="translate(126.30603, 205.405453)"><g><path d="M 24.390625 -34.296875 C 28.398438 -34.296875 31.503906 -33.5625 33.703125 -32.09375 C 35.910156 -30.625 37.015625 -28.664062 37.015625 -26.21875 C 37.015625 -25.875 36.96875 -25.363281 36.875 -24.6875 C 36.53125 -22.914062 35.515625 -21.148438 33.828125 -19.390625 C 32.140625 -17.628906 29.828125 -16.125 26.890625 -14.875 C 23.953125 -13.625 20.570312 -12.898438 16.75 -12.703125 C 17.09375 -9.035156 19.050781 -7.203125 22.625 -7.203125 C 25.269531 -7.203125 28.007812 -7.957031 30.84375 -9.46875 C 31.382812 -8.59375 31.753906 -7.675781 31.953125 -6.71875 C 32.148438 -5.757812 32.195312 -4.671875 32.09375 -3.453125 C 29.894531 -1.929688 27.628906 -0.863281 25.296875 -0.25 C 22.972656 0.351562 20.097656 0.65625 16.671875 0.65625 C 11.484375 0.65625 7.710938 -0.53125 5.359375 -2.90625 C 3.015625 -5.28125 1.84375 -8.445312 1.84375 -12.40625 C 1.84375 -13.976562 1.988281 -15.570312 2.28125 -17.1875 C 2.914062 -20.613281 4.25 -23.613281 6.28125 -26.1875 C 8.3125 -28.757812 10.878906 -30.753906 13.984375 -32.171875 C 17.097656 -33.585938 20.566406 -34.296875 24.390625 -34.296875 Z M 27.328125 -24.453125 C 27.421875 -24.847656 27.46875 -25.363281 27.46875 -26 C 27.46875 -28.007812 26.390625 -29.015625 24.234375 -29.015625 C 22.722656 -29.015625 21.34375 -28.253906 20.09375 -26.734375 C 18.84375 -25.210938 17.945312 -22.9375 17.40625 -19.90625 L 17.109375 -18.359375 C 19.953125 -18.609375 22.289062 -19.28125 24.125 -20.375 C 25.96875 -21.476562 27.035156 -22.835938 27.328125 -24.453125 Z M 27.328125 -24.453125 "/></g></g></g><g fill="#6c7380" fill-opacity="1"><g transform="translate(164.427112, 205.405453)"><g><path d="M 19.90625 0.65625 C 14.125 0.65625 9.703125 -0.625 6.640625 -3.1875 C 3.585938 -5.757812 2.0625 -9.25 2.0625 -13.65625 C 2.0625 -14.738281 2.132812 -15.816406 2.28125 -16.890625 C 3.0625 -22.421875 5.421875 -26.703125 9.359375 -29.734375 C 13.304688 -32.773438 18.460938 -34.296875 24.828125 -34.296875 C 30.554688 -34.296875 34.960938 -33.007812 38.046875 -30.4375 C 41.128906 -27.875 42.671875 -24.335938 42.671875 -19.828125 C 42.671875 -18.847656 42.597656 -17.796875 42.453125 -16.671875 C 41.671875 -11.191406 39.304688 -6.929688 35.359375 -3.890625 C 31.421875 -0.859375 26.269531 0.65625 19.90625 0.65625 Z M 20.71875 -4.625 C 22.332031 -4.625 23.773438 -5.640625 25.046875 -7.671875 C 26.316406 -9.703125 27.25 -12.628906 27.84375 -16.453125 C 28.082031 -18.265625 28.203125 -19.78125 28.203125 -21 C 28.203125 -23.5 27.820312 -25.457031 27.0625 -26.875 C 26.300781 -28.300781 25.238281 -29.015625 23.875 -29.015625 C 22.207031 -29.015625 20.785156 -27.984375 19.609375 -25.921875 C 18.429688 -23.867188 17.578125 -21.054688 17.046875 -17.484375 C 16.742188 -15.566406 16.59375 -13.851562 16.59375 -12.34375 C 16.59375 -9.84375 16.945312 -7.929688 17.65625 -6.609375 C 18.375 -5.285156 19.394531 -4.625 20.71875 -4.625 Z M 20.71875 -4.625 "/></g></g></g><g fill="#6c7380" fill-opacity="1"><g transform="translate(209.232249, 205.405453)"><g><path d="M 30.921875 -49.796875 C 38.171875 -49.796875 43.863281 -48.472656 48 -45.828125 C 52.132812 -43.191406 54.203125 -38.441406 54.203125 -31.578125 C 54.203125 -29.523438 53.984375 -27.203125 53.546875 -24.609375 C 51.785156 -14.671875 47.804688 -8.082031 41.609375 -4.84375 C 35.410156 -1.613281 29.109375 0 22.703125 0 L 22.484375 0 C 10.628906 0 3.40625 0.0703125 0.8125 0.21875 C 0.90625 -1.789062 1.34375 -3.703125 2.125 -5.515625 C 3.445312 -5.609375 4.425781 -5.875 5.0625 -6.3125 C 5.695312 -6.757812 6.195312 -7.554688 6.5625 -8.703125 C 6.9375 -9.859375 7.34375 -11.78125 7.78125 -14.46875 L 11.609375 -36.796875 C 11.898438 -38.367188 12.046875 -39.59375 12.046875 -40.46875 C 12.046875 -41.789062 11.75 -42.695312 11.15625 -43.1875 C 10.570312 -43.675781 9.519531 -43.992188 8 -44.140625 C 7.8125 -45.515625 7.71875 -46.546875 7.71875 -47.234375 C 7.71875 -48.015625 7.8125 -48.894531 8 -49.875 C 11.382812 -49.726562 16.332031 -49.65625 22.84375 -49.65625 C 24.21875 -49.65625 25.320312 -49.679688 26.15625 -49.734375 Z M 39 -26.21875 C 39.488281 -28.96875 39.734375 -31.414062 39.734375 -33.5625 C 39.734375 -37.582031 38.960938 -40.375 37.421875 -41.9375 C 35.878906 -43.507812 33.785156 -44.296875 31.140625 -44.296875 C 29.722656 -44.296875 28.398438 -44 27.171875 -43.40625 L 22.1875 -13.375 C 21.882812 -11.601562 21.734375 -10.207031 21.734375 -9.1875 C 21.734375 -7.71875 22.0625 -6.738281 22.71875 -6.25 C 23.382812 -5.757812 24.578125 -5.515625 26.296875 -5.515625 C 27.421875 -5.515625 28.753906 -6.023438 30.296875 -7.046875 C 31.835938 -8.078125 33.425781 -10.132812 35.0625 -13.21875 C 36.707031 -16.300781 38.019531 -20.632812 39 -26.21875 Z M 39 -26.21875 "/></g></g></g><g fill="#6c7380" fill-opacity="1"><g transform="translate(263.071854, 205.405453)"><g><path d="M 24.390625 -34.296875 C 28.398438 -34.296875 31.503906 -33.5625 33.703125 -32.09375 C 35.910156 -30.625 37.015625 -28.664062 37.015625 -26.21875 C 37.015625 -25.875 36.96875 -25.363281 36.875 -24.6875 C 36.53125 -22.914062 35.515625 -21.148438 33.828125 -19.390625 C 32.140625 -17.628906 29.828125 -16.125 26.890625 -14.875 C 23.953125 -13.625 20.570312 -12.898438 16.75 -12.703125 C 17.09375 -9.035156 19.050781 -7.203125 22.625 -7.203125 C 25.269531 -7.203125 28.007812 -7.957031 30.84375 -9.46875 C 31.382812 -8.59375 31.753906 -7.675781 31.953125 -6.71875 C 32.148438 -5.757812 32.195312 -4.671875 32.09375 -3.453125 C 29.894531 -1.929688 27.628906 -0.863281 25.296875 -0.25 C 22.972656 0.351562 20.097656 0.65625 16.671875 0.65625 C 11.484375 0.65625 7.710938 -0.53125 5.359375 -2.90625 C 3.015625 -5.28125 1.84375 -8.445312 1.84375 -12.40625 C 1.84375 -13.976562 1.988281 -15.570312 2.28125 -17.1875 C 2.914062 -20.613281 4.25 -23.613281 6.28125 -26.1875 C 8.3125 -28.757812 10.878906 -30.753906 13.984375 -32.171875 C 17.097656 -33.585938 20.566406 -34.296875 24.390625 -34.296875 Z M 27.328125 -24.453125 C 27.421875 -24.847656 27.46875 -25.363281 27.46875 -26 C 27.46875 -28.007812 26.390625 -29.015625 24.234375 -29.015625 C 22.722656 -29.015625 21.34375 -28.253906 20.09375 -26.734375 C 18.84375 -25.210938 17.945312 -22.9375 17.40625 -19.90625 L 17.109375 -18.359375 C 19.953125 -18.609375 22.289062 -19.28125 24.125 -20.375 C 25.96875 -21.476562 27.035156 -22.835938 27.328125 -24.453125 Z M 27.328125 -24.453125 "/></g></g></g><g fill="#6c7380" fill-opacity="1"><g transform="translate(301.192936, 205.405453)"><g><path d="M 36.953125 -34.296875 C 38.367188 -33.859375 39.40625 -33.050781 40.0625 -31.875 C 40.726562 -30.695312 41.0625 -29.035156 41.0625 -26.890625 C 41.0625 -24.097656 40.335938 -21.34375 38.890625 -18.625 C 37.453125 -15.90625 35.050781 -12.976562 31.6875 -9.84375 C 28.332031 -6.707031 23.789062 -3.207031 18.0625 0.65625 C 16.789062 0.65625 15.519531 0.53125 14.25 0.28125 C 12.976562 0.0390625 11.972656 -0.320312 11.234375 -0.8125 C 9.722656 -9.082031 8.109375 -15.960938 6.390625 -21.453125 C 5.847656 -23.160156 5.160156 -24.320312 4.328125 -24.9375 C 3.492188 -25.550781 2.148438 -25.804688 0.296875 -25.703125 C 0.296875 -27.804688 0.585938 -29.671875 1.171875 -31.296875 C 3.085938 -31.441406 5.476562 -31.832031 8.34375 -32.46875 C 11.207031 -33.101562 13.394531 -33.710938 14.90625 -34.296875 C 15.84375 -34.003906 16.539062 -33.585938 17 -33.046875 C 17.46875 -32.515625 17.898438 -31.5625 18.296875 -30.1875 C 20.253906 -23.332031 21.769531 -16.425781 22.84375 -9.46875 C 24.851562 -11.53125 26.257812 -13.429688 27.0625 -15.171875 C 27.875 -16.910156 28.28125 -18.660156 28.28125 -20.421875 C 28.28125 -22.179688 27.765625 -23.523438 26.734375 -24.453125 C 25.703125 -25.390625 24.234375 -25.804688 22.328125 -25.703125 C 22.328125 -27.804688 22.625 -29.671875 23.21875 -31.296875 C 25.125 -31.441406 27.507812 -31.832031 30.375 -32.46875 C 33.238281 -33.101562 35.429688 -33.710938 36.953125 -34.296875 Z M 36.953125 -34.296875 "/></g></g></g></svg>